# xmcd
#
# Track frame offsets: 
#        150
#        16052
#        32406
#        54277
#        70534
#        89015
#        104485
#        117484
#        132429
#        149556
#        167028
#        182986
#        199017
#        216692
#        232684
#        251697
#        271894
#        290304
#        310675
#        330765
#
# Disc length: 4451 seconds
#
# Revision: 0
# Processed by: cddbd v1.5.2PL0 Copyright (c) Steve Scherf et al.
# Submitted via: ExactAudioCopy v1.0b3
#
DISCID=1e116114
DTITLE=Shania Twain - Best of Shania Twain
DYEAR=2000
DGENRE=Country
TTITLE0=You're still the One
TTITLE1=When
TTITLE2=From this Moment on
TTITLE3=Black Eyes, blue Tears
TTITLE4=I wont leave you lonely
TTITLE5=I'm holdin on to Love
TTITLE6=Come on over
TTITLE7=You've got a Way
TTITLE8=Whatever you do I don't
TTITLE9=Man I feel like a Woman
TTITLE10=Love gets me every Time
TTITLE11=Don't be stupid
TTITLE12=That dont impress me much
TTITLE13=Honey I'm home
TTITLE14=If you wanna touch her, ask
TTITLE15=Rock this Country
TTITLE16=Any Man of mine
TTITLE17=I'm outter here
TTITLE18=You win my love
TTITLE19=Oh Shit!!
EXTD=
EXTT0=
EXTT1=
EXTT2=
EXTT3=
EXTT4=
EXTT5=
EXTT6=
EXTT7=
EXTT8=
EXTT9=
EXTT10=
EXTT11=
EXTT12=
EXTT13=
EXTT14=
EXTT15=
EXTT16=
EXTT17=
EXTT18=
EXTT19=
PLAYORDER=
